# xmcd
#
# Track frame offsets: 
#        150
#        13359
#        38199
#        59367
#        74720
#        92211
#        115139
#        134862
#        150315
#        168574
#        186223
#        215224
#
# Disc length: 3127 seconds
#
# Revision: 0
# Processed by: cddbd v1.5.2PL0 Copyright (c) Steve Scherf et al.
# Submitted via: ExactAudioCopy v1.3
#
DISCID=bc0c350c
DTITLE=Bad Temper Joe and Fernant Zeste - Haunt
DYEAR=2019
DGENRE=Blues
TTITLE0=Lullaby
TTITLE1=Winterblues at #5 (Or Maybe Not)
TTITLE2=Battle Cry Blues
TTITLE3=Fannie Mae
TTITLE4=Minstrel's Lament
TTITLE5=Little Rain
TTITLE6=Black
TTITLE7=Lullaby
TTITLE8=Shut Your Mouth
TTITLE9=Nova (Nothing to Say)
TTITLE10=Been a While Since We've Talked
TTITLE11=All Is Fine Now
EXTD=
EXTT0=
EXTT1=
EXTT2=
EXTT3=
EXTT4=
EXTT5=
EXTT6=
EXTT7=
EXTT8=
EXTT9=
EXTT10=
EXTT11=
PLAYORDER=
